<?xml version="1.0" standalone="no"?>
<!DOCTYPE svg PUBLIC "-//W3C//DTD SVG 20010904//EN"
 "http://www.w3.org/TR/2001/REC-SVG-20010904/DTD/svg10.dtd">
<svg version="1.0" xmlns="http://www.w3.org/2000/svg"
 width="1280.000000pt" height="1138.000000pt" viewBox="0 0 1280.000000 1138.000000"
 preserveAspectRatio="xMidYMid meet">
<metadata>
Created by potrace 1.15, written by Peter Selinger 2001-2017
</metadata>
<g transform="translate(0.000000,1138.000000) scale(0.100000,-0.100000)"
fill="#000000" stroke="none">
<path d="M7996 11344 c-13 -12 -16 -38 -16 -118 0 -113 10 -140 51 -134 24 3
24 4 27 127 2 93 -1 126 -10 133 -20 12 -35 10 -52 -8z"/>
<path d="M5580 11305 c-162 -21 -319 -66 -391 -111 -88 -55 -154 -169 -198
-339 -39 -152 -55 -566 -31 -807 19 -186 41 -362 56 -442 13 -70 12 -89 -2
-180 -11 -66 -18 -172 -19 -306 l-2 -205 -36 -78 c-21 -43 -37 -83 -37 -88 0
-15 -58 -129 -139 -274 -67 -120 -194 -374 -236 -470 -9 -22 -20 -47 -25 -56
-4 -8 -22 -51 -40 -95 -30 -74 -50 -122 -70 -169 -5 -11 -20 -54 -35 -95 -15
-41 -33 -91 -40 -110 -12 -30 -68 -210 -110 -350 -8 -25 -25 -97 -40 -160 -14
-63 -30 -133 -35 -155 -50 -212 -92 -593 -89 -802 2 -139 -2 -165 -42 -270 -8
-22 -12 -22 -182 -22 -269 -1 -334 -34 -459 -233 -35 -55 -70 -111 -78 -124
-8 -13 -44 -70 -80 -126 -35 -57 -101 -159 -145 -228 -45 -69 -99 -153 -121
-188 -21 -35 -57 -91 -79 -126 -22 -35 -91 -144 -153 -242 -62 -98 -181 -284
-263 -412 -82 -129 -149 -236 -149 -238 0 -10 25 -2 97 32 43 20 103 47 133
61 30 14 100 47 155 73 55 26 123 58 150 70 28 13 91 42 140 65 130 62 241
113 315 147 36 17 88 41 116 54 28 13 54 24 57 24 4 0 24 -24 46 -52 22 -29
69 -91 105 -138 36 -46 66 -88 66 -92 0 -5 -14 -21 -31 -36 l-31 -28 126 -161
c69 -89 126 -167 126 -172 0 -6 -34 -36 -75 -67 -41 -31 -75 -62 -75 -69 0 -7
39 -63 86 -125 93 -120 98 -141 28 -120 -22 7 -64 16 -94 21 -30 4 -82 12
-115 18 -92 15 -300 31 -395 31 -94 0 -272 -16 -365 -32 -33 -6 -82 -14 -110
-18 -27 -5 -77 -16 -110 -25 -33 -9 -77 -20 -98 -25 -21 -4 -44 -13 -50 -19
-6 -6 -20 -11 -32 -11 -12 0 -25 -4 -30 -8 -6 -5 -32 -17 -60 -27 -123 -45
-346 -175 -453 -264 -68 -56 -238 -222 -269 -263 -15 -20 -46 -60 -69 -90 -45
-59 -123 -181 -174 -273 -18 -33 -37 -67 -42 -75 -18 -34 -88 -192 -88 -201 0
-11 15 -12 38 0 76 40 320 66 357 38 19 -14 18 -16 -16 -58 -46 -56 -144 -200
-181 -264 -47 -83 -148 -293 -148 -309 0 -8 -5 -18 -10 -21 -6 -3 -10 -14 -10
-23 0 -9 -7 -30 -15 -46 -8 -15 -15 -39 -15 -52 0 -12 -4 -25 -9 -28 -5 -4
-12 -25 -16 -49 -4 -23 -11 -55 -15 -72 -5 -16 -14 -70 -20 -120 -6 -49 -16
-101 -22 -115 -5 -15 -63 -63 -136 -116 -128 -92 -697 -505 -797 -579 -30 -22
-97 -71 -149 -110 -53 -38 -96 -73 -96 -77 0 -4 149 -8 331 -8 267 0 333 3
344 14 18 17 795 584 838 611 27 16 51 20 147 21 133 1 305 17 405 38 39 8 94
19 123 25 29 6 61 15 72 21 10 5 28 10 39 10 12 0 29 4 39 9 9 6 46 20 82 32
102 34 129 45 136 52 17 16 34 6 34 -20 -1 -32 -20 -104 -40 -148 -42 -95 -54
-117 -80 -154 -17 -23 -30 -45 -30 -51 0 -13 55 -13 102 0 20 6 65 15 100 20
35 5 81 13 103 18 94 22 141 35 155 42 9 4 31 11 50 15 19 4 41 11 50 15 8 4
35 16 60 25 229 89 390 184 569 338 l56 48 60 -6 c33 -4 89 -13 125 -21 54
-13 66 -13 75 -2 24 33 92 115 122 148 17 19 42 49 54 65 13 17 26 32 29 35 3
3 40 46 82 95 42 50 134 158 205 240 70 83 142 166 158 186 187 225 410 480
438 501 28 22 37 25 49 15 25 -20 228 -286 228 -298 0 -12 -45 -69 -210 -269
-52 -63 -112 -135 -132 -160 -20 -25 -107 -130 -193 -235 -86 -104 -179 -218
-208 -253 -29 -35 -53 -67 -55 -73 -7 -18 30 -9 221 55 106 35 282 93 392 129
320 104 993 324 1205 394 242 80 293 111 354 215 27 46 36 77 106 378 23 96
45 191 50 210 8 30 43 178 81 340 26 116 24 111 121 185 366 276 749 629 1025
944 65 74 123 139 128 145 82 86 352 445 466 618 l64 98 45 0 c25 0 115 -7
200 -15 85 -9 225 -22 310 -30 85 -9 198 -20 250 -25 97 -10 370 -35 496 -45
83 -7 64 -32 164 215 39 96 76 186 82 200 6 14 14 34 19 45 10 26 98 243 111
275 6 14 16 39 23 55 7 17 31 75 53 130 23 55 62 152 87 215 26 63 75 185 110
270 35 85 104 256 155 380 51 124 121 297 156 385 36 88 68 169 73 180 5 11
18 41 30 67 12 26 21 50 21 53 0 4 100 251 130 320 4 11 29 72 55 135 25 63
51 125 57 137 6 12 50 48 97 81 122 83 442 306 678 473 209 147 273 189 287
189 7 0 44 -43 82 -95 38 -51 73 -93 78 -91 12 3 39 83 146 426 18 58 37 109
42 115 4 5 8 44 8 87 l0 78 -358 0 c-197 0 -361 -3 -365 -6 -3 -3 23 -43 59
-89 35 -46 64 -87 64 -92 0 -6 -32 -32 -72 -59 -40 -27 -137 -95 -217 -151
-338 -237 -644 -451 -756 -528 -89 -62 -90 -63 -122 -141 -17 -43 -38 -95 -46
-114 -8 -19 -47 -114 -86 -210 -40 -96 -76 -184 -81 -195 -26 -62 -100 -245
-100 -250 0 -3 -9 -24 -19 -48 -10 -23 -49 -116 -86 -207 -129 -318 -177 -435
-196 -477 -10 -24 -19 -45 -19 -48 0 -7 -85 -215 -116 -283 -13 -29 -24 -57
-24 -62 0 -6 -4 -18 -10 -28 -5 -9 -23 -53 -41 -97 -33 -84 -54 -136 -69 -170
-5 -11 -35 -83 -65 -160 -31 -77 -61 -151 -67 -165 -12 -29 -31 -74 -46 -110
-5 -14 -28 -68 -50 -120 l-39 -95 -74 3 c-89 3 -155 9 -269 21 -47 6 -134 15
-195 20 -271 25 -337 34 -342 46 -2 7 15 50 39 96 24 46 55 109 67 139 13 30
31 73 41 95 9 22 25 60 35 85 9 25 21 54 26 65 40 97 100 312 131 470 18 96
18 462 -1 530 -19 70 -43 138 -53 150 -4 5 -8 15 -8 22 0 7 152 165 339 350
186 186 351 355 366 376 58 79 0 65 -210 -53 -33 -18 -76 -43 -95 -55 -19 -12
-42 -25 -50 -29 -18 -8 -24 -12 -188 -111 -72 -44 -140 -85 -149 -90 -10 -6
-62 -36 -115 -68 l-97 -59 -44 31 c-201 138 -566 208 -948 181 -307 -21 -555
-65 -926 -165 -87 -23 -507 -166 -517 -176 -6 -5 -19 -9 -29 -9 -16 0 -18 5
-13 33 3 18 0 129 -8 247 -8 118 -14 224 -14 235 1 11 0 76 -1 145 -3 159 -3
150 13 150 22 0 217 80 258 107 21 12 39 23 42 23 2 0 30 18 62 40 33 23 77
52 98 67 67 43 324 302 411 414 197 250 392 586 524 900 44 106 51 130 42 148
-8 15 -9 27 -1 40 5 11 24 63 42 116 39 119 71 158 252 300 77 61 126 106 126
117 0 22 -46 35 -71 19 -20 -12 -49 -15 -49 -5 0 3 14 24 32 46 36 46 30 73
-16 73 -19 1 -31 9 -39 25 -15 31 -46 36 -86 16 -16 -9 -32 -12 -35 -7 -3 4 8
46 24 92 30 84 79 165 125 209 14 13 25 29 25 36 0 6 6 17 14 23 8 7 22 41 31
76 35 128 -3 292 -85 370 -17 17 -40 45 -51 62 -17 28 -24 31 -40 23 -14 -8
-25 -7 -41 3 -13 8 -51 20 -85 26 -142 27 -300 -41 -382 -165 -92 -140 -79
-331 34 -464 53 -63 85 -115 112 -184 27 -69 29 -98 9 -129 -10 -15 -14 -47
-12 -105 2 -94 -9 -117 -42 -84 -17 17 -19 30 -14 110 6 113 0 142 -32 142
-33 0 -50 -42 -81 -206 -21 -115 -20 -127 28 -228 42 -86 44 -95 40 -161 -4
-57 -9 -74 -28 -90 -12 -11 -43 -60 -67 -110 -25 -49 -54 -106 -65 -126 -33
-57 -117 -198 -135 -227 -10 -15 -25 -40 -34 -56 -30 -54 -192 -271 -255 -341
-68 -76 -169 -162 -236 -199 -77 -44 -142 -60 -238 -60 -163 1 -214 50 -141
135 45 53 66 116 66 198 0 63 -20 193 -40 256 -5 17 -18 59 -30 94 -11 36 -20
68 -20 72 0 4 21 15 48 25 99 37 195 115 235 189 29 54 28 175 -1 261 -20 61
-69 167 -118 254 -68 121 -106 201 -127 265 -20 64 -22 87 -20 284 2 142 7
218 14 227 6 8 23 14 36 14 82 0 190 94 247 215 10 22 23 48 27 57 5 10 9 43
9 73 0 185 -253 317 -705 369 -139 16 -471 16 -595 1z m-1000 -4712 c0 -30
102 -210 158 -280 102 -126 203 -194 345 -229 34 -9 66 -19 70 -23 4 -4 -14
-22 -40 -39 -89 -58 -144 -100 -320 -239 l-92 -73 -166 0 c-191 0 -178 -7
-179 104 -1 82 31 239 120 591 24 94 46 181 50 195 13 56 14 56 35 31 10 -13
19 -30 19 -38z m-140 -4005 c20 -24 55 -69 78 -100 68 -89 61 -88 152 -17 59
45 84 59 92 51 8 -8 -1 -25 -33 -64 -38 -46 -260 -307 -383 -450 -22 -27 -44
-48 -48 -48 -11 0 -10 27 1 64 30 98 41 146 41 171 0 16 4 42 9 59 10 34 41
293 41 344 0 17 4 32 8 32 4 0 23 -19 42 -42z"/>
<path d="M7742 11298 c-18 -18 -16 -26 27 -127 44 -107 63 -131 89 -115 28 18
25 44 -18 143 -47 110 -67 130 -98 99z"/>
<path d="M8247 11248 c-13 -29 -34 -79 -47 -111 l-24 -58 22 -21 c22 -22 22
-22 41 -3 11 11 37 63 59 115 44 103 43 130 -3 130 -21 0 -29 -9 -48 -52z"/>
<path d="M7512 11138 c-24 -24 -10 -48 69 -120 58 -53 88 -73 107 -73 22 0 28
5 30 26 2 21 -12 39 -81 102 -86 78 -103 87 -125 65z"/>
<path d="M8428 11069 c-63 -57 -78 -76 -78 -100 0 -26 4 -29 30 -29 44 0 182
132 178 169 -2 19 -9 27 -28 29 -19 2 -44 -15 -102 -69z"/>
<path d="M7360 10895 c-18 -22 -2 -53 33 -64 18 -5 65 -21 105 -35 76 -27 106
-27 116 1 9 23 -8 39 -72 63 -31 12 -72 28 -90 36 -42 18 -76 18 -92 -1z"/>
<path d="M8640 10900 c-8 -5 -45 -19 -81 -31 -87 -28 -114 -49 -104 -79 7 -20
11 -22 57 -16 27 4 57 11 66 16 10 6 39 18 67 29 27 10 54 26 60 35 21 33 -29
70 -65 46z"/>
</g>
</svg>
